<svg id="Layer_1" data-name="Layer 1" xmlns="http://www.w3.org/2000/svg" width="256" height="256" viewBox="0 0 256 256"><title>imagec</title><rect x="79.7" y="157.3" width="13.4" height="13.16"/><rect x="97.2" y="157.3" width="20.9" height="13.16"/><rect x="122.3" y="157.3" width="13.4" height="13.16"/><rect x="139.8" y="157.3" width="20.9" height="13.16"/><path d="M174.9,112H83c1-26.9,21.5-41.8,45.9-41.8S173.8,85,174.9,112Z"/><rect x="164.8" y="157.3" width="13.4" height="13.16"/><rect x="67.1" y="116.2" width="123.6" height="36.96"/><path d="M128.9.5,18.8,64.1V191.2l110.1,63.6,110.1-63.6V64.1Zm66,154.7a2,2,0,0,1-2.1,2.1H182.4v13.2h10.4a2.1,2.1,0,1,1,0,4.2H65a2.1,2.1,0,1,1,0-4.2H75.5V157.3H65a2,2,0,0,1-2.1-2.1V114.1A2,2,0,0,1,65,112H78.8C79.9,82.3,102,66,128.9,66S178,82.3,179.1,112h13.8a2,2,0,0,1,2.1,2.1Z"/><path d="M178.8,138.9h-51a2.1,2.1,0,1,0,0,4.2h51a2.1,2.1,0,0,0,0-4.2Zm0,0h-51a2.1,2.1,0,1,0,0,4.2h51a2.1,2.1,0,0,0,0-4.2Zm0,0h-51a2.1,2.1,0,1,0,0,4.2h51a2.1,2.1,0,0,0,0-4.2Z" fill="#fff"/></svg>