<svg id="Layer_1" data-name="Layer 1" xmlns="http://www.w3.org/2000/svg" width="256" height="256" viewBox="0 0 256 256"><title>imageb</title><path d="M125.6,81.3,92.3,127.8H69.9C76.3,102.4,98.8,82.9,125.6,81.3Z"/><polygon points="127.7 85.5 127.7 127.8 97.5 127.8 127.7 85.5"/><rect x="71.3" y="147.7" width="56.3" height="23.25"/><rect x="131.9" y="147.7" width="9.4" height="23.25"/><rect x="145.5" y="147.7" width="42.7" height="23.25"/><path d="M189.7,127.8H131.9V81A62.3,62.3,0,0,1,189.7,127.8Z"/><rect x="59.4" y="132" width="140.8" height="11.52"/><path d="M129.8.4,19.3,64.2V191.8l110.5,63.8,110.5-63.8V64.2ZM220,147.7H192.4V173a2,2,0,0,1-2.1,2.1H69.2a2,2,0,0,1-2.1-2.1V147.7H39.5a2.1,2.1,0,1,1,0-4.2H55.2V129.9a2,2,0,0,1,2.1-2.1h8.2a66.4,66.4,0,0,1,64.1-50.9c.2-.2.4-.2.8,0,31,.2,56.8,22,63.7,50.9h8.2a2,2,0,0,1,2.1,2.1v13.6H220a2.1,2.1,0,1,1,0,4.2Z"/></svg>