<svg id="Layer_1" data-name="Layer 1" xmlns="http://www.w3.org/2000/svg" width="256" height="256" viewBox="0 0 256 256"><title>imagea</title><polygon points="103.7 156.9 68.4 175.5 65.4 171.3 83.8 149.6 97.6 149.6 103.7 156.9"/><polygon points="106.6 160.3 115.2 170.7 86.8 170.7 106.6 160.3"/><polygon points="153.3 149.6 135.7 170.7 120.6 170.7 103.1 149.6 153.3 149.6"/><polygon points="149.7 160.3 169.6 170.7 141.1 170.7 149.7 160.3"/><path d="M86.6,130.4c-2.1-4.8-2.5-10.5-2.5-15.9a45.3,45.3,0,0,1,90.5,0,50.7,50.7,0,0,1-2.5,15.9Z"/><rect x="72.1" y="134.5" width="114.4" height="10.87"/><polygon points="172.5 149.6 190.9 171.5 188 175.5 152.4 156.9 158.7 149.6 172.5 149.6"/><path d="M128.2.5,17.9,64.2V191.5l110.2,63.6,110.2-63.6V64.2Zm66.9,172-4.8,6.9a2.2,2.2,0,0,1-2.7.6l-10-5.2H78.6l-10,5.2a2.3,2.3,0,0,1-2.7-.6L61,172.6a2.2,2.2,0,0,1,.2-2.5l17.3-20.5H70a2,2,0,0,1-2.1-2.1v-15a2,2,0,0,1,2.1-2.1H82.2a58.2,58.2,0,0,1-2.3-15.9,49.4,49.4,0,0,1,98.9,0,51.4,51.4,0,0,1-2.3,15.9h12.1a2,2,0,0,1,2.1,2.1v15a2,2,0,0,1-2.1,2.1H177.9l17.1,20.5A2.2,2.2,0,0,1,195.1,172.6Z"/></svg>