<svg xmlns="http://www.w3.org/2000/svg"><symbol id="imagea" viewBox="0 0 256 256"><path d="M103.7 156.9l-35.3 18.6-3-4.2 18.4-21.7h13.8l6.1 7.3zm2.9 3.4l8.6 10.4H86.8l19.8-10.4zm46.7-10.7l-17.6 21.1h-15.1l-17.5-21.1h50.2zm-3.6 10.7l19.9 10.4h-28.5l8.6-10.4zm-63.1-29.9c-2.1-4.8-2.5-10.5-2.5-15.9a45.3 45.3 0 0 1 90.5 0 50.7 50.7 0 0 1-2.5 15.9zm-14.5 4.1h114.4v10.87H72.1zm100.4 15.1l18.4 21.9-2.9 4-35.6-18.6 6.3-7.3h13.8z"/><path d="M128.2.5L17.9 64.2v127.3l110.2 63.6 110.2-63.6V64.2zm66.9 172l-4.8 6.9a2.2 2.2 0 0 1-2.7.6l-10-5.2h-99l-10 5.2a2.3 2.3 0 0 1-2.7-.6l-4.9-6.8a2.2 2.2 0 0 1 .2-2.5l17.3-20.5H70a2 2 0 0 1-2.1-2.1v-15a2 2 0 0 1 2.1-2.1h12.2a58.2 58.2 0 0 1-2.3-15.9 49.4 49.4 0 0 1 98.9 0 51.4 51.4 0 0 1-2.3 15.9h12.1a2 2 0 0 1 2.1 2.1v15a2 2 0 0 1-2.1 2.1h-10.7l17.1 20.5a2.2 2.2 0 0 1 .1 2.5z"/></symbol><symbol id="imageb" viewBox="0 0 256 256"><path d="M92.3 127.8H69.9c6.5-25.4 28.9-44.8 55.7-46.5zm5.2 0l30.2-42.3v42.3H97.5zm-26.2 19.9h56.3v23.25H71.3zm60.6 0h9.4v23.25h-9.4zm13.6 0h42.7v23.25h-42.7zm44.2-19.9h-57.8V81a62.3 62.3 0 0 1 57.8 46.8zM59.4 132h140.8v11.52H59.4z"/><path d="M129.8.4L19.3 64.2v127.6l110.5 63.8 110.5-63.8V64.2zM220 147.7h-27.6V173a2 2 0 0 1-2.1 2.1H69.2a2 2 0 0 1-2.1-2.1v-25.3H39.5a2.1 2.1 0 1 1 0-4.2h15.7v-13.6a2 2 0 0 1 2.1-2.1h8.2a66.4 66.4 0 0 1 64.1-50.9c.2-.2.4-.2.8 0 31 .2 56.8 22 63.7 50.9h8.2a2 2 0 0 1 2.1 2.1v13.6H220a2.1 2.1 0 1 1 0 4.2z"/><path fill="#fff" d="M220 143.5h-15.7v-13.6a2 2 0 0 0-2.1-2.1H194c-6.9-28.9-32.7-50.7-63.7-50.9-.4-.2-.6-.2-.8 0a66.4 66.4 0 0 0-64.1 50.9h-8.1a2 2 0 0 0-2.1 2.1v13.6H39.5a2.1 2.1 0 1 0 0 4.2h27.6V173a2 2 0 0 0 2.1 2.1h121.1a2 2 0 0 0 2.1-2.1v-25.3H220a2.1 2.1 0 1 0 0-4.2zM131.9 81a62.3 62.3 0 0 1 57.8 46.7h-57.8zm-6.3.2l-33.3 46.6H69.9c6.4-25.4 28.9-44.9 55.7-46.5zm2.1 4.2v42.3H97.5zm0 85.5H71.3v-23.2h56.3zm13.6 0h-9.4v-23.2h9.4zm46.9 0h-42.7v-23.2h42.7zm11.9-27.4H59.4V132h140.8z"/></symbol><symbol id="imagec" viewBox="0 0 256 256"><path d="M79.7 157.3h13.4v13.16H79.7zm17.5 0h20.9v13.16H97.2zm25.1 0h13.4v13.16h-13.4zm17.5 0h20.9v13.16h-20.9zm35.1-45.3H83c1-26.9 21.5-41.8 45.9-41.8s44.9 14.8 46 41.8zm-10.1 45.3h13.4v13.16h-13.4zm-97.7-41.1h123.6v36.96H67.1z"/><path d="M128.9.5L18.8 64.1v127.1l110.1 63.6L239 191.2V64.1zm66 154.7a2 2 0 0 1-2.1 2.1h-10.4v13.2h10.4a2.1 2.1 0 1 1 0 4.2H65a2.1 2.1 0 1 1 0-4.2h10.5v-13.2H65a2 2 0 0 1-2.1-2.1v-41.1A2 2 0 0 1 65 112h13.8c1.1-29.7 23.2-46 50.1-46s49.1 16.3 50.2 46h13.8a2 2 0 0 1 2.1 2.1z"/><path fill="#fff" d="M178.8 138.9h-51a2.1 2.1 0 1 0 0 4.2h51a2.1 2.1 0 0 0 0-4.2zm0 0h-51a2.1 2.1 0 1 0 0 4.2h51a2.1 2.1 0 0 0 0-4.2zm0 0h-51a2.1 2.1 0 1 0 0 4.2h51a2.1 2.1 0 0 0 0-4.2z"/><path fill="#fff" d="M192.8 157.3a2 2 0 0 0 2.1-2.1v-41.1a2 2 0 0 0-2.1-2.1h-13.7c-1.1-29.7-23.2-46-50.2-46s-49 16.3-50.1 46H65a2 2 0 0 0-2.1 2.1v41.1a2 2 0 0 0 2.1 2.1h10.5v13.2H65a2.1 2.1 0 1 0 0 4.2h127.8a2.1 2.1 0 1 0 0-4.2h-10.4v-13.2zm-63.9-87.1c24.4 0 44.9 14.8 46 41.8H83c1-27 21.5-41.8 45.9-41.8zM93 170.5H79.7v-13.2H93zm25.1 0H97.2v-13.2h20.9zm17.5 0h-13.3v-13.2h13.4zm25.1 0h-20.9v-13.2h20.9zm17.5 0h-13.4v-13.2h13.4zM67.1 153.1v-37h123.7v37z"/></symbol></svg>